HIERARCHY
ROOT Hip
{
	OFFSET	0.0000	0.0000	0.0000
	CHANNELS 6 Xposition Yposition Zposition Xrotation Yrotation Zrotation
	JOINT LowerSpine
	{
		OFFSET	0.0000	8.3453	-5.1292
		CHANNELS 3 Xrotation Yrotation Zrotation
		JOINT MiddleSpine
		{
			OFFSET	10.8569	0.0000	0.0000
			CHANNELS 3 Xrotation Yrotation Zrotation
			JOINT Chest
			{
				OFFSET	15.2984	0.0000	0.0000
				CHANNELS 3 Xrotation Yrotation Zrotation
				JOINT Neck
				{
					OFFSET	25.6618	-0.5986	0.0000
					CHANNELS 3 Xrotation Yrotation Zrotation
					JOINT Head
					{
						OFFSET	8.8829	0.0000	0.0000
						CHANNELS 3 Xrotation Yrotation Zrotation
						End Site
						{
							OFFSET	19.7399	0.0000	0.0000
						}
					}
				}
				JOINT RClavicle
				{
					OFFSET	23.6878	0.0000	3.1584
					CHANNELS 3 Xrotation Yrotation Zrotation
					JOINT RShoulder
					{
						OFFSET	-15.5945	-3.9480	0.9870
						CHANNELS 3 Xrotation Yrotation Zrotation
						JOINT RForearm
						{
							OFFSET	-31.3370	0.0000	0.1974
							CHANNELS 3 Xrotation Yrotation Zrotation
							JOINT RHand
							{
								OFFSET	-26.4021	0.0000	0.0000
								CHANNELS 3 Xrotation Yrotation Zrotation
								End Site
								{
									OFFSET	-15.7919	-0.9870	0.0000
								}
							}
						}
					}
				}
				JOINT LClavicle
				{
					OFFSET	23.6878	0.0000	-3.1584
					CHANNELS 3 Xrotation Yrotation Zrotation
					JOINT LShoulder
					{
						OFFSET	-15.5945	-3.9480	-0.9870
						CHANNELS 3 Xrotation Yrotation Zrotation
						JOINT LForearm
						{
							OFFSET	-31.3370	0.0000	-0.1974
							CHANNELS 3 Xrotation Yrotation Zrotation
							JOINT LHand
							{
								OFFSET	-26.4021	0.0000	0.0000
								CHANNELS 3 Xrotation Yrotation Zrotation
								End Site
								{
									OFFSET	-15.7919	-0.9870	0.0000
								}
							}
						}
					}
				}
			}
		}
	}
	JOINT RThigh
	{
		OFFSET	-8.8829	0.4481	0.0000
		CHANNELS 3 Xrotation Yrotation Zrotation
		JOINT RShin
		{
			OFFSET	43.1316	0.0000	-0.4935
			CHANNELS 3 Xrotation Yrotation Zrotation
			JOINT RFoot
			{
				OFFSET	0.0000	-44.7256	-0.4047
				CHANNELS 3 Xrotation Yrotation Zrotation
				JOINT RToe
				{
					OFFSET	0.0000	-3.9332	12.1953
					CHANNELS 3 Xrotation Yrotation Zrotation
					End Site
					{
						OFFSET	6.7725	0.0000	0.0000
					}
				}
			}
		}
	}
	JOINT LThigh
	{
		OFFSET	8.8829	0.4481	0.0000
		CHANNELS 3 Xrotation Yrotation Zrotation
		JOINT LShin
		{
			OFFSET	43.1316	0.0000	0.4935
			CHANNELS 3 Xrotation Yrotation Zrotation
			JOINT LFoot
			{
				OFFSET	0.0000	-44.7256	0.4047
				CHANNELS 3 Xrotation Yrotation Zrotation
				JOINT LToe
				{
					OFFSET	0.0000	-3.9332	-12.1953
					CHANNELS 3 Xrotation Yrotation Zrotation
					End Site
					{
						OFFSET	6.7725	0.0000	0.0000
					}
				}
			}
		}
	}
}
MOTION
Frames:	5
Frame Time: 0.0169491000
	6.9217	90.0498	-9.2706	6.372684	20.725550	-3.864157	-89.999990	-90.000000	0.000000	0.309912	0.496627	-2.777995	1.123951	1.592575	-9.272408	0.000000	0.000000	0.000000	0.000000	0.000000	0.000000	89.999060	-0.020508	-89.724540	-35.825020	39.711890	89.614620	13.930780	67.268400	-15.327150	0.000000	0.000000	0.000000	-89.998010	0.359924	-85.164350	30.063630	-21.317580	78.399880	-13.907020	-67.234890	-15.305230	0.000000	0.000000	0.000000	-3.570731	73.254680	-111.833000	89.398970	50.971610	90.230600	-0.722729	0.657921	0.224566	157.208700	90.000000	0.000000	-102.271300	86.432210	-11.642010	-89.710740	-30.081200	90.046370	12.704380	-4.719645	2.845543	180.079100	-90.000000	0.000000
	7.3386	90.3913	-9.0066	5.806776	19.208050	-3.419933	-89.999990	-90.000000	0.000000	0.208373	0.394722	-2.714378	0.765436	1.273968	-9.054929	0.000000	0.000000	0.000000	0.000000	0.000000	0.000000	89.999010	-0.021617	-89.709600	-34.428880	43.430460	88.990860	11.548730	63.347300	-13.161570	0.000000	0.000000	0.000000	-89.998330	0.368565	-85.048190	28.370180	-24.854050	78.033260	-11.149210	-62.559430	-12.805730	0.000000	0.000000	0.000000	-8.624522	75.405520	-105.175100	89.454550	48.126120	90.191200	-1.191538	0.197365	0.067206	155.971800	90.000000	0.000000	-104.928700	86.593530	-7.036260	-89.731750	-28.194350	90.038060	12.433400	-3.694775	2.201724	180.000200	-90.000000	0.000000
	7.7032	90.6884	-8.7649	5.360996	17.717430	-2.989909	-89.999990	-90.000000	0.000000	0.135021	0.280529	-2.649951	0.499319	0.908500	-8.836579	0.000000	0.000000	0.000000	0.000000	0.000000	0.000000	89.998260	-0.040105	-89.461120	-32.990450	48.714250	87.599840	9.679435	59.242470	-11.520920	0.000000	0.000000	0.000000	-89.998530	0.373531	-84.981400	26.314790	-29.256540	77.060700	-9.146290	-57.849380	-11.066080	0.000000	0.000000	0.000000	-14.440590	76.445480	-97.574320	89.508830	45.019290	90.154940	-2.017720	-0.750654	-0.269660	155.751400	90.000000	0.000000	-107.658600	86.798110	-2.653062	-89.749020	-26.596100	90.031750	12.078410	-2.473775	1.455315	180.000000	-90.000000	0.000000
	7.9664	90.9498	-8.5066	4.902584	15.931960	-2.582974	-89.999990	-90.000000	0.000000	0.099270	0.159651	-2.591193	0.358140	0.513446	-8.638771	0.000000	0.000000	0.000000	0.000000	0.000000	0.000000	89.996940	-0.079358	-88.933590	-31.477460	54.020580	85.735690	8.102799	54.765210	-10.197550	0.000000	0.000000	0.000000	-89.998600	0.375254	-84.958240	23.942640	-33.812600	75.753200	-7.636961	-53.213380	-9.820693	0.000000	0.000000	0.000000	-18.441590	76.133090	-91.263350	89.567060	41.285560	90.118910	-3.768477	-1.427164	-0.576232	157.765800	90.000000	0.000000	-110.325800	86.918640	1.607710	-89.763910	-25.186900	90.026680	11.774390	-1.553865	0.906732	180.000000	-90.000000	0.000000
	8.1836	91.1436	-8.1667	4.268296	13.700260	-2.143101	-89.999990	-90.000000	0.000000	0.102381	0.041144	-2.545592	0.347620	0.119142	-8.485726	0.000000	0.000000	0.000000	0.000000	0.000000	0.000000	89.995630	-0.138259	-88.142310	-30.054760	57.702490	84.155670	6.783736	50.043090	-9.151509	0.000000	0.000000	0.000000	-89.998600	0.375461	-84.955500	21.664890	-37.436070	74.915830	-6.470288	-48.759970	-8.913491	0.000000	0.000000	0.000000	-20.755210	75.877300	-86.343190	89.622890	37.281780	90.087630	-6.262926	-1.892887	-0.833123	161.771400	90.000000	0.000000	-113.623600	86.977380	6.685010	-89.776700	-23.951090	90.022630	11.712510	-1.040131	0.595475	180.000000	-90.000000	0.000000
